#!OML:ASF H:\Terrain\Patient Classification 1\Animal2\Wednesday\Animal2.ASF
:FULLY-SPECIFIED
:DEGREES
142
root 18.8745 17.5143 -17.0454 0.668008 -56.2048 1.3094
lowerback -3.1556 -5.25547 3.66237
upperback -11.3241 -7.37904 -0.412042
thorax -10.8623 -4.14006 -1.94092
lowerneck -10.0364 7.3915 17.9913
upperneck 0.62882 8.64213 -21.1969
head 3.70153 3.65647 -9.08876
rclavicle -7.35503e-015 -1.27222e-014
rhumerus -39.6428 -70.6728 49.8022
rradius 26.8041
rwrist -18.8349
rhand -7.81765 22.421
rfingers 7.12502
rthumb 18.0843 -6.75833
lclavicle -7.35503e-015 -1.27222e-014
lhumerus -13.5181 29.4126 -15.5145
lradius 31.2807
lwrist 78.2849
lhand -1.66261 12.1296
lfingers 7.12502
lthumb 23.997 40.6496
rfemur -9.96962 -3.89824 23.321
rtibia 30.1652
rfoot -23.5595 28.2464
rtoes 31.4094
lfemur -2.99248 4.14979 -20.0245
ltibia 27.9892
lfoot -26.275 14.9743
ltoes -14.9236
143
root 18.8731 17.5186 -17.0388 0.549597 -56.3361 1.30724
lowerback -3.0338 -5.26466 3.81939
upperback -11.192 -7.36496 -0.308192
thorax -10.788 -4.13408 -1.91329
lowerneck -10.2834 7.46869 18.1398
upperneck 0.57049 8.69523 -21.4442
head 3.76093 3.66013 -9.19035
rclavicle -1.53064e-013 -5.56597e-014
rhumerus -48.9485 -74.1967 59.5939
rradius 26.5115
rwrist -14.5751
rhand -7.23019 22.0968
rfingers 7.12502
rthumb 18.6494 -7.02918
lclavicle -1.53064e-013 -5.56597e-014
lhumerus -14.3659 29.5108 -15.3817
lradius 31.286
lwrist 78.3958
lhand -1.91979 12.3617
lfingers 7.12502
lthumb 23.7503 40.914
rfemur -9.79868 -3.58321 23.3465
rtibia 30.087
rfoot -23.8321 27.6565
rtoes 30.2134
lfemur -2.96004 4.19439 -19.9487
ltibia 28.0043
lfoot -25.9618 15.2818
ltoes -14.666
144
root 18.8782 17.5249 -17.0288 0.486091 -56.4357 1.38617
lowerback -2.98648 -5.32238 4.0991
upperback -11.0939 -7.42221 -0.241287
thorax -10.74 -4.17937 -1.9898
lowerneck -10.6354 7.56349 18.1584
upperneck 0.652032 8.78181 -21.5135
head 3.86754 3.67778 -9.20101
rclavicle -1.06747e-013 -4.49253e-014
rhumerus -55.04 -75.3135 65.8388
rradius 26.1336
rwrist -12.6551
rhand -7.33007 21.6468
rfingers 7.12502
rthumb 18.5533 -7.48845
lclavicle -1.06747e-013 -4.49253e-014
lhumerus -15.471 29.956 -15.3565
lradius 31.3004
lwrist 77.8581
lhand -2.45511 11.9859
lfingers 7.12502
lthumb 23.2368 40.604
rfemur -9.74687 -3.36156 23.2979
rtibia 29.9731
rfoot -23.8153 27.3523
rtoes 29.9134
lfemur -3.09094 4.09251 -19.9333
ltibia 28.053
lfoot -26.0337 15.3499
ltoes -15.3974
145
root 18.8824 17.5236 -17.0186 0.806462 -56.5907 1.06251
lowerback -2.97937 -5.25739 4.59574
upperback -11.0745 -7.31961 -0.232457
thorax -10.7879 -4.17456 -2.25555
lowerneck -10.5531 7.56084 18.5722
upperneck 0.602807 8.74689 -21.7339
head 3.86579 3.66268 -9.35778
rclavicle 9.323e-014 4.09496e-014
rhumerus -56.0979 -74.2936 66.6559
rradius 26.099
rwrist -12.5539
rhand -8.04634 20.9684
rfingers 7.12502
rthumb 17.8643 -8.23113
lclavicle 9.323e-014 4.09496e-014
lhumerus -16.0897 30.3394 -15.0249
lradius 31.1633
lwrist 77.1918
lhand -2.80249 11.9725
lfingers 7.12502
lthumb 22.9035 40.6323
rfemur -9.74949 -3.09421 23.5047
rtibia 29.9379
rfoot -23.7071 27.2837
rtoes 30.5502
lfemur -3.11923 4.10017 -19.6767
ltibia 27.9881
lfoot -26.3302 14.7741
ltoes -15.1643
146
root 18.8795 17.526 -17.01 0.708082 -56.7688 1.30546
lowerback -3.03704 -5.16691 4.65103
upperback -11.1011 -7.19796 -0.203152
thorax -10.7763 -4.12021 -2.26878
lowerneck -10.3669 7.48009 18.551
upperneck 0.488304 8.65269 -21.7505
head 3.78182 3.62807 -9.37418
rclavicle 1.66979e-014 9.54166e-015
rhumerus -58.9274 -73.8038 69.4913
rradius 25.8712
rwrist -11.8037
rhand -8.07186 20.6302
rfingers 7.12502
rthumb 17.8397 -8.57153
lclavicle 1.66979e-014 9.54166e-015
lhumerus -16.8467 29.8885 -14.5094
lradius 31.0992
lwrist 77.4811
lhand -3.36973 12.232
lfingers 7.12502
lthumb 22.3591 40.9581
rfemur -9.84917 -2.61062 23.3967
rtibia 29.9849
rfoot -23.8329 26.8698
rtoes 30.5779
lfemur -3.20441 4.05755 -19.7999
ltibia 27.8348
lfoot -26.3058 14.3342
ltoes -14.0281
147
root 18.8761 17.5345 -17.0033 0.113371 -56.9166 2.1268
lowerback -2.98956 -5.18122 4.34571
upperback -11.1507 -7.22082 -0.140777
thorax -10.8079 -4.10114 -2.0282
lowerneck -10.2687 7.45423 18.0487
upperneck 0.365069 8.65879 -21.4824
head 3.69061 3.64192 -9.19147
rclavicle 6.83819e-014 6.36111e-015
rhumerus -63.682 -74.1089 74.3798
rradius 25.3806
rwrist -10.5378
rhand -6.8643 20.6547
rfingers 7.12502
rthumb 19.0013 -8.43717
lclavicle 6.83819e-014 6.36111e-015
lhumerus -18.0426 29.3661 -14.1897
lradius 31.0257
lwrist 77.7979
lhand -4.1548 12.3593
lfingers 7.12502
lthumb 21.6053 41.174
rfemur -10.0042 -2.28604 22.9246
rtibia 30.0902
rfoot -23.9849 26.4167
rtoes 30.4422
lfemur -3.37468 4.03329 -20.2522
ltibia 27.6434
lfoot -25.6521 14.8456
ltoes -15.9683
148
root 18.876 17.5379 -16.9984 -0.174503 -57.1045 2.48017
lowerback -2.82889 -5.21142 4.29054
upperback -11.1484 -7.24916 -0.0594074
thorax -10.8827 -4.10373 -1.89283
lowerneck -10.2061 7.51757 18.0219
upperneck 0.203723 8.73591 -21.4997
head 3.64935 3.68312 -9.18488
rclavicle -5.96354e-016 -4.69132e-014
rhumerus -68.7902 -74.2703 79.3115
rradius 25.0248
rwrist -9.31465
rhand -8.36115 20.0007
rfingers 7.12502
rthumb 17.5613 -9.22613
lclavicle -5.96354e-016 -4.69132e-014
lhumerus -19.2788 29.4907 -14.0147
lradius 30.8626
lwrist 77.5424
lhand -4.36721 12.6614
lfingers 7.12502
lthumb 21.4013 41.4994
rfemur -10.1106 -2.12426 22.7339
rtibia 30.2452
rfoot -24.2985 26.1104
rtoes 30.055
lfemur -3.40109 4.1827 -20.3687
ltibia 27.4028
lfoot -25.0826 14.9317
ltoes -17.6272
149
root 18.8776 17.5391 -16.9938 -0.300979 -57.3152 2.68337
lowerback -2.68984 -5.21814 4.27143
upperback -11.1355 -7.24569 0.0187501
thorax -10.9355 -4.094 -1.78604
lowerneck -10.1945 7.6005 18.3314
upperneck 0.051134 8.80593 -21.7425
head 3.64863 3.713 -9.31684
rclavicle -1.39348e-013 -3.73715e-014
rhumerus -74.3919 -74.2064 84.523
rradius 24.7523
rwrist -7.86016
rhand -9.41489 19.1829
rfingers 7.12502
rthumb 16.547 -10.1316
lclavicle -1.39348e-013 -3.73715e-014
lhumerus -20.5407 29.3268 -13.7278
lradius 30.8314
lwrist 77.6372
lhand -4.67463 12.8529
lfingers 7.12502
lthumb 21.106 41.7242
rfemur -10.2544 -1.94066 22.6414
rtibia 30.3705
rfoot -24.7558 25.713
rtoes 28.7406
lfemur -3.4277 4.30556 -20.4118
ltibia 27.2092
lfoot -25.0771 14.3131
ltoes -16.5585
150
root 18.88 17.5449 -16.9893 -0.292936 -57.4826 2.86773
lowerback -2.70456 -5.27202 4.41564
upperback -11.1455 -7.32235 -0.0370544
thorax -10.976 -4.15039 -1.91594
lowerneck -10.0386 7.70429 18.8745
upperneck -0.0475365 8.91011 -21.9482
head 3.65433 3.77174 -9.47684
rclavicle -7.95139e-016 5.32743e-014
rhumerus -78.4517 -73.7701 87.7804
rradius 24.5484
rwrist -6.97861
rhand -9.58014 18.3709
rfingers 7.12502
rthumb 16.3879 -10.9568
lclavicle -7.95139e-016 5.32743e-014
lhumerus -21.8374 27.694 -13.4272
lradius 31.1075
lwrist 78.8948
lhand -5.9071 12.5796
lfingers 7.12502
lthumb 19.9217 41.5785
rfemur -10.4685 -1.76737 22.5491
rtibia 30.3985
rfoot -25.1588 25.2655
rtoes 27.1017
lfemur -3.62804 4.3973 -20.4589
ltibia 27.1641
lfoot -25.2553 14.2268
ltoes -17.6519
151
root 18.884 17.5524 -16.9843 -0.111498 -57.688 2.80728
lowerback -2.74423 -5.32651 4.8762
upperback -11.1112 -7.39498 -0.15145
thorax -11.0096 -4.23704 -2.28348
lowerneck -9.83764 7.75055 19.1357
upperneck -0.0885397 8.96937 -21.8521
head 3.62557 3.81903 -9.48656
rclavicle 1.00187e-013 3.65764e-014
rhumerus -80.9111 -73.0742 89.154
rradius 24.3482
rwrist -6.85217
rhand -9.34074 17.8018
rfingers 7.12502
rthumb 16.6184 -11.5067
lclavicle 1.00187e-013 3.65764e-014
lhumerus -23.0624 26.418 -13.2276
lradius 31.2365
lwrist 79.8507
lhand -6.90059 12.201
lfingers 7.12502
lthumb 18.9664 41.2963
rfemur -10.6187 -1.56658 22.5874
rtibia 30.3828
rfoot -25.3063 24.9914
rtoes 26.158
lfemur -3.7893 4.51646 -20.3649
ltibia 27.177
lfoot -25.2365 14.5909
ltoes -21.0696
152
root 18.8894 17.557 -16.9783 -0.0290371 -57.9574 2.77109
lowerback -2.6408 -5.28728 5.21709
upperback -11.0889 -7.33192 -0.212247
thorax -11.1028 -4.24205 -2.52651
lowerneck -9.90739 7.60877 18.7033
upperneck 0.0588588 8.79508 -21.1355
head 3.57321 3.75083 -9.17688
rclavicle -1.19271e-015 3.97569e-015
rhumerus -84.5667 -72.3631 92.0596
rradius 23.8073
rwrist -6.18276
rhand -9.47612 17.4172
rfingers 7.12502
rthumb 16.4881 -11.9022
lclavicle -1.19271e-015 3.97569e-015
lhumerus -23.9875 27.3937 -13.0671
lradius 30.7708
lwrist 78.6147
lhand -6.90982 12.4889
lfingers 7.12502
lthumb 18.9575 41.5851
rfemur -10.687 -1.41682 22.5981
rtibia 30.3511
rfoot -25.3254 24.8244
rtoes 25.9921
lfemur -3.84371 4.39348 -20.3207
ltibia 27.1887
lfoot -25.3497 14.8003
ltoes -21.3046
153
root 18.8934 17.5619 -16.9758 -0.177601 -58.1809 3.01596
lowerback -2.53096 -5.21869 5.17712
upperback -11.0688 -7.23328 -0.205512
thorax -11.1271 -4.18823 -2.49715
lowerneck -10.5287 7.30597 17.4921
upperneck 0.621637 8.42057 -19.7065
head 3.61792 3.57176 -8.49931
rclavicle 7.93151e-014 5.56597e-014
rhumerus -91.1424 -71.7689 98.3261
rradius 23.4791
rwrist -4.34594
rhand -9.72472 16.9397
rfingers 7.12502
rthumb 16.2487 -12.3994
lclavicle 7.93151e-014 5.56597e-014
lhumerus -24.9514 28.6337 -12.7297
lradius 30.333
lwrist 77.1027
lhand -6.92018 13.2653
lfingers 7.12502
lthumb 18.9476 42.3625
rfemur -10.769 -1.36567 22.4636
rtibia 30.3076
rfoot -25.5188 24.5156
rtoes 26.0803
lfemur -3.98591 4.08148 -20.4253
ltibia 27.2066
lfoot -25.687 14.5972
ltoes -17.5752
154
root 18.8946 17.5653 -16.976 -0.375752 -58.4202 3.2658
lowerback -2.35016 -5.15848 4.97813
upperback -11.0325 -7.13502 -0.0763394
thorax -11.1319 -4.10955 -2.24632
lowerneck -10.3043 7.41584 17.6499
upperneck 0.498537 8.60388 -20.287
head 3.62513 3.65363 -8.71093
rclavicle 9.8796e-014 2.46493e-014
rhumerus -84.6711 -70.2672 90.263
rradius 23.4847
rwrist -7.3366
rhand -10.8963 16.6727
rfingers 7.12502
rthumb 15.1203 -12.755
lclavicle 9.8796e-014 2.46493e-014
lhumerus -26.2024 29.0663 -12.1684
lradius 30.1605
lwrist 76.6305
lhand -7.25138 13.88
lfingers 7.12502
lthumb 18.629 43.0079
rfemur -10.8212 -1.266 22.3491
rtibia 30.2988
rfoot -25.5481 24.3352
rtoes 25.7556
lfemur -4.12342 3.87088 -20.5055
ltibia 27.1792
lfoot -25.5132 14.3862
ltoes -14.9132
155
root 18.8939 17.5611 -16.9741 -0.3434 -58.7122 3.21167
lowerback -2.10122 -5.12701 4.98364
upperback -11.0609 -7.0708 0.0370438
thorax -11.2917 -4.07181 -2.1062
lowerneck -10.5114 7.30969 16.7783
upperneck 0.914319 8.5374 -19.3471
head 3.66883 3.63451 -8.24086
rclavicle -1.78906e-015 1.03368e-014
rhumerus -99.6065 -70.182 105.319
rradius 23.4237
rwrist -2.40633
rhand -10.0209 16.7199
rfingers 7.12502
rthumb 15.9635 -12.6423
lclavicle -1.78906e-015 1.03368e-014
lhumerus -27.3427 25.6912 -10.8435
lradius 30.5177
lwrist 79.774
lhand -8.33607 13.773
lfingers 7.12502
lthumb 17.5855 42.9977
rfemur -10.8612 -1.25079 22.411
rtibia 30.3477
rfoot -24.9648 24.6234
rtoes 25.9224
lfemur -4.10792 3.92861 -20.4115
ltibia 27.0654
lfoot -24.8464 14.3815
ltoes -14.9486
156
root 18.894 17.5599 -16.9704 -0.325882 -58.9188 3.26197
lowerback -1.96448 -5.13087 5.05641
upperback -11.1148 -7.07682 -0.0344766
thorax -11.4598 -4.08969 -2.20172
lowerneck -9.85796 7.45478 17.9722
upperneck 0.653191 8.71903 -20.3119
head 3.63262 3.73759 -8.77284
rclavicle 6.36111e-014 1.98785e-014
rhumerus -85.6132 -68.3428 88.5754
rradius 23.207
rwrist -8.27096
rhand -10.5964 16.3139
rfingers 7.12502
rthumb 15.4092 -13.0918
lclavicle 6.36111e-014 1.98785e-014
lhumerus -28.3859 16.1545 -8.01288
lradius 31.9978
lwrist 88.8256
lhand -10.5956 12.515
lfingers 7.12502
lthumb 15.41 41.9206
rfemur -10.9871 -1.45607 22.3958
rtibia 30.4104
rfoot -23.9451 25.1345
rtoes 27.8525
lfemur -4.12036 4.1497 -20.3619
ltibia 26.9234
lfoot -24.094 14.253
ltoes -16.2078
